<svg width="80" height="80" viewBox="0 0 80 80" fill="none" xmlns="http://www.w3.org/2000/svg">
<path fill-rule="evenodd" clip-rule="evenodd" d="M39.9975 0C17.91 0 0 18.361 0 41.0155C0 59.133 11.46 74.5053 27.3575 79.9293C29.3575 80.3061 30.0875 79.0397 30.0875 77.9529C30.0875 76.9788 30.0525 74.4002 30.0324 70.9781C18.905 73.4569 16.5575 65.4799 16.5575 65.4799C14.74 60.7429 12.1175 59.4817 12.1175 59.4817C8.48501 56.9363 12.3925 56.9875 12.3925 56.9875C16.405 57.2772 18.5175 61.2145 18.5175 61.2145C22.0875 67.4818 27.88 65.6721 30.16 64.6211C30.5225 61.9707 31.5575 60.1636 32.7 59.1383C23.8175 58.1027 14.48 54.5858 14.48 38.8701C14.48 34.392 16.0375 30.7316 18.5975 27.8632C18.185 26.8251 16.8125 22.6571 18.9875 17.0102C18.9875 17.0102 22.3475 15.9079 29.9875 21.214C33.18 20.304 36.6 19.8503 40.0025 19.8323C43.4 19.8503 46.8225 20.304 50.0175 21.214C57.6525 15.9079 61.005 17.0102 61.005 17.0102C63.1875 22.6571 61.815 26.8251 61.4025 27.8632C63.9675 30.7316 65.515 34.392 65.515 38.8701C65.515 54.6242 56.1625 58.0923 47.2525 59.1074C48.6875 60.3737 49.9675 62.8755 49.9675 66.7026C49.9675 72.1855 49.9175 76.6071 49.9175 77.9529C49.9175 79.05 50.6375 80.3265 52.6675 79.9241C68.55 74.4899 80 59.1279 80 41.0155C80 18.361 62.09 0 39.9975 0Z" fill="white"/>
</svg>
